<mxfile host="app.diagrams.net" modified="2021-03-08T13:20:16.612Z" agent="5.0 (Windows NT 10.0; Win64; x64) AppleWebKit/537.36 (KHTML, like Gecko) Chrome/88.0.4324.190 Safari/537.36" etag="nE27PL7KDs5hQiK1163X" version="14.4.4" type="github">
  <diagram name="Page-1" id="e56a1550-8fbb-45ad-956c-1786394a9013">
    <mxGraphModel dx="1422" dy="762" grid="1" gridSize="10" guides="1" tooltips="1" connect="1" arrows="1" fold="1" page="1" pageScale="1" pageWidth="1169" pageHeight="827" background="#F1FAEE" math="0" shadow="1">
      <root>
        <mxCell id="0" />
        <mxCell id="1" parent="0" />
        <mxCell id="M6c7fhZQipC6nJDo4fWO-20" value="CellpyData" style="shape=table;startSize=30;container=1;collapsible=1;childLayout=tableLayout;fixedRows=1;rowLines=0;fontStyle=1;align=center;resizeLast=1;fillColor=#A8DADC;strokeColor=#457B9D;fontColor=#1D3557;" parent="1" vertex="1">
          <mxGeometry x="30" y="425" width="180" height="190" as="geometry" />
        </mxCell>
        <mxCell id="M6c7fhZQipC6nJDo4fWO-21" value="" style="shape=partialRectangle;collapsible=0;dropTarget=0;pointerEvents=0;fillColor=none;top=0;left=0;bottom=1;right=0;points=[[0,0.5],[1,0.5]];portConstraint=eastwest;strokeColor=#457B9D;fontColor=#1D3557;" parent="M6c7fhZQipC6nJDo4fWO-20" vertex="1">
          <mxGeometry y="30" width="180" height="30" as="geometry" />
        </mxCell>
        <mxCell id="M6c7fhZQipC6nJDo4fWO-22" value="type" style="shape=partialRectangle;connectable=0;fillColor=none;top=0;left=0;bottom=0;right=0;fontStyle=2;overflow=hidden;strokeColor=#457B9D;fontColor=#1D3557;" parent="M6c7fhZQipC6nJDo4fWO-21" vertex="1">
          <mxGeometry width="70" height="30" as="geometry" />
        </mxCell>
        <mxCell id="M6c7fhZQipC6nJDo4fWO-23" value="name" style="shape=partialRectangle;connectable=0;fillColor=none;top=0;left=0;bottom=0;right=0;align=left;spacingLeft=6;fontStyle=2;overflow=hidden;strokeColor=#457B9D;fontColor=#1D3557;" parent="M6c7fhZQipC6nJDo4fWO-21" vertex="1">
          <mxGeometry x="70" width="110" height="30" as="geometry" />
        </mxCell>
        <mxCell id="M6c7fhZQipC6nJDo4fWO-24" value="" style="shape=partialRectangle;collapsible=0;dropTarget=0;pointerEvents=0;fillColor=none;top=0;left=0;bottom=0;right=0;points=[[0,0.5],[1,0.5]];portConstraint=eastwest;strokeColor=#457B9D;fontColor=#1D3557;" parent="M6c7fhZQipC6nJDo4fWO-20" vertex="1">
          <mxGeometry y="60" width="180" height="30" as="geometry" />
        </mxCell>
        <mxCell id="M6c7fhZQipC6nJDo4fWO-25" value="list" style="shape=partialRectangle;connectable=0;fillColor=none;top=0;left=0;bottom=0;right=0;editable=1;overflow=hidden;strokeColor=#457B9D;fontColor=#1D3557;" parent="M6c7fhZQipC6nJDo4fWO-24" vertex="1">
          <mxGeometry width="70" height="30" as="geometry" />
        </mxCell>
        <mxCell id="M6c7fhZQipC6nJDo4fWO-26" value="cells" style="shape=partialRectangle;connectable=0;fillColor=none;top=0;left=0;bottom=0;right=0;align=left;spacingLeft=6;overflow=hidden;strokeColor=#457B9D;fontColor=#1D3557;fontStyle=1" parent="M6c7fhZQipC6nJDo4fWO-24" vertex="1">
          <mxGeometry x="70" width="110" height="30" as="geometry" />
        </mxCell>
        <mxCell id="M6c7fhZQipC6nJDo4fWO-27" value="" style="shape=partialRectangle;collapsible=0;dropTarget=0;pointerEvents=0;fillColor=none;top=0;left=0;bottom=0;right=0;points=[[0,0.5],[1,0.5]];portConstraint=eastwest;strokeColor=#457B9D;fontColor=#1D3557;" parent="M6c7fhZQipC6nJDo4fWO-20" vertex="1">
          <mxGeometry y="90" width="180" height="30" as="geometry" />
        </mxCell>
        <mxCell id="M6c7fhZQipC6nJDo4fWO-28" value="prop" style="shape=partialRectangle;connectable=0;fillColor=none;top=0;left=0;bottom=0;right=0;editable=1;overflow=hidden;strokeColor=#457B9D;fontColor=#1D3557;" parent="M6c7fhZQipC6nJDo4fWO-27" vertex="1">
          <mxGeometry width="70" height="30" as="geometry" />
        </mxCell>
        <mxCell id="M6c7fhZQipC6nJDo4fWO-29" value="cell" style="shape=partialRectangle;connectable=0;fillColor=none;top=0;left=0;bottom=0;right=0;align=left;spacingLeft=6;overflow=hidden;strokeColor=#457B9D;fontColor=#1D3557;fontStyle=1" parent="M6c7fhZQipC6nJDo4fWO-27" vertex="1">
          <mxGeometry x="70" width="110" height="30" as="geometry" />
        </mxCell>
        <mxCell id="M6c7fhZQipC6nJDo4fWO-30" value="" style="shape=partialRectangle;collapsible=0;dropTarget=0;pointerEvents=0;fillColor=none;top=0;left=0;bottom=0;right=0;points=[[0,0.5],[1,0.5]];portConstraint=eastwest;strokeColor=#457B9D;fontColor=#1D3557;" parent="M6c7fhZQipC6nJDo4fWO-20" vertex="1">
          <mxGeometry y="120" width="180" height="30" as="geometry" />
        </mxCell>
        <mxCell id="M6c7fhZQipC6nJDo4fWO-31" value="method" style="shape=partialRectangle;connectable=0;fillColor=none;top=0;left=0;bottom=0;right=0;editable=1;overflow=hidden;strokeColor=#457B9D;fontColor=#1D3557;" parent="M6c7fhZQipC6nJDo4fWO-30" vertex="1">
          <mxGeometry width="70" height="30" as="geometry" />
        </mxCell>
        <mxCell id="M6c7fhZQipC6nJDo4fWO-32" value="save, read_, get_" style="shape=partialRectangle;connectable=0;fillColor=none;top=0;left=0;bottom=0;right=0;align=left;spacingLeft=6;overflow=hidden;strokeColor=#457B9D;fontColor=#1D3557;fontStyle=1" parent="M6c7fhZQipC6nJDo4fWO-30" vertex="1">
          <mxGeometry x="70" width="110" height="30" as="geometry" />
        </mxCell>
        <mxCell id="M6c7fhZQipC6nJDo4fWO-41" value="" style="group;fontColor=#1D3557;" parent="1" vertex="1" connectable="0">
          <mxGeometry x="460" y="425" width="250" height="190" as="geometry" />
        </mxCell>
        <mxCell id="M6c7fhZQipC6nJDo4fWO-7" value="Cell" style="shape=table;startSize=30;container=1;collapsible=1;childLayout=tableLayout;fixedRows=1;rowLines=0;fontStyle=1;align=center;resizeLast=1;fillColor=#A8DADC;strokeColor=#457B9D;fontColor=#1D3557;" parent="M6c7fhZQipC6nJDo4fWO-41" vertex="1">
          <mxGeometry width="250" height="190" as="geometry" />
        </mxCell>
        <mxCell id="M6c7fhZQipC6nJDo4fWO-8" value="" style="shape=partialRectangle;collapsible=0;dropTarget=0;pointerEvents=0;fillColor=none;top=0;left=0;bottom=1;right=0;points=[[0,0.5],[1,0.5]];portConstraint=eastwest;strokeColor=#457B9D;fontColor=#1D3557;" parent="M6c7fhZQipC6nJDo4fWO-7" vertex="1">
          <mxGeometry y="30" width="250" height="30" as="geometry" />
        </mxCell>
        <mxCell id="M6c7fhZQipC6nJDo4fWO-9" value="type" style="shape=partialRectangle;connectable=0;fillColor=none;top=0;left=0;bottom=0;right=0;fontStyle=2;overflow=hidden;strokeColor=#457B9D;fontColor=#1D3557;" parent="M6c7fhZQipC6nJDo4fWO-8" vertex="1">
          <mxGeometry width="70" height="30" as="geometry" />
        </mxCell>
        <mxCell id="M6c7fhZQipC6nJDo4fWO-10" value="name" style="shape=partialRectangle;connectable=0;fillColor=none;top=0;left=0;bottom=0;right=0;align=left;spacingLeft=6;fontStyle=2;overflow=hidden;strokeColor=#457B9D;fontColor=#1D3557;" parent="M6c7fhZQipC6nJDo4fWO-8" vertex="1">
          <mxGeometry x="70" width="180" height="30" as="geometry" />
        </mxCell>
        <mxCell id="M6c7fhZQipC6nJDo4fWO-11" value="" style="shape=partialRectangle;collapsible=0;dropTarget=0;pointerEvents=0;fillColor=none;top=0;left=0;bottom=0;right=0;points=[[0,0.5],[1,0.5]];portConstraint=eastwest;strokeColor=#457B9D;fontColor=#1D3557;" parent="M6c7fhZQipC6nJDo4fWO-7" vertex="1">
          <mxGeometry y="60" width="250" height="30" as="geometry" />
        </mxCell>
        <mxCell id="M6c7fhZQipC6nJDo4fWO-12" value="df" style="shape=partialRectangle;connectable=0;fillColor=none;top=0;left=0;bottom=0;right=0;editable=1;overflow=hidden;strokeColor=#457B9D;fontColor=#1D3557;" parent="M6c7fhZQipC6nJDo4fWO-11" vertex="1">
          <mxGeometry width="70" height="30" as="geometry" />
        </mxCell>
        <mxCell id="M6c7fhZQipC6nJDo4fWO-13" value="raw, summary, steps" style="shape=partialRectangle;connectable=0;fillColor=none;top=0;left=0;bottom=0;right=0;align=left;spacingLeft=6;overflow=hidden;strokeColor=#457B9D;fontColor=#1D3557;fontStyle=1" parent="M6c7fhZQipC6nJDo4fWO-11" vertex="1">
          <mxGeometry x="70" width="180" height="30" as="geometry" />
        </mxCell>
        <mxCell id="M6c7fhZQipC6nJDo4fWO-14" value="" style="shape=partialRectangle;collapsible=0;dropTarget=0;pointerEvents=0;fillColor=none;top=0;left=0;bottom=0;right=0;points=[[0,0.5],[1,0.5]];portConstraint=eastwest;strokeColor=#457B9D;fontColor=#1D3557;" parent="M6c7fhZQipC6nJDo4fWO-7" vertex="1">
          <mxGeometry y="90" width="250" height="30" as="geometry" />
        </mxCell>
        <mxCell id="M6c7fhZQipC6nJDo4fWO-15" value="dict" style="shape=partialRectangle;connectable=0;fillColor=none;top=0;left=0;bottom=0;right=0;editable=1;overflow=hidden;strokeColor=#457B9D;fontColor=#1D3557;" parent="M6c7fhZQipC6nJDo4fWO-14" vertex="1">
          <mxGeometry width="70" height="30" as="geometry" />
        </mxCell>
        <mxCell id="M6c7fhZQipC6nJDo4fWO-16" value="raw_limits, raw_steps" style="shape=partialRectangle;connectable=0;fillColor=none;top=0;left=0;bottom=0;right=0;align=left;spacingLeft=6;overflow=hidden;strokeColor=#457B9D;fontColor=#1D3557;fontStyle=1" parent="M6c7fhZQipC6nJDo4fWO-14" vertex="1">
          <mxGeometry x="70" width="180" height="30" as="geometry" />
        </mxCell>
        <mxCell id="M6c7fhZQipC6nJDo4fWO-17" value="" style="shape=partialRectangle;collapsible=0;dropTarget=0;pointerEvents=0;fillColor=none;top=0;left=0;bottom=0;right=0;points=[[0,0.5],[1,0.5]];portConstraint=eastwest;strokeColor=#457B9D;fontColor=#1D3557;" parent="M6c7fhZQipC6nJDo4fWO-7" vertex="1">
          <mxGeometry y="120" width="250" height="30" as="geometry" />
        </mxCell>
        <mxCell id="M6c7fhZQipC6nJDo4fWO-18" value="obj" style="shape=partialRectangle;connectable=0;fillColor=none;top=0;left=0;bottom=0;right=0;editable=1;overflow=hidden;strokeColor=#457B9D;fontColor=#1D3557;" parent="M6c7fhZQipC6nJDo4fWO-17" vertex="1">
          <mxGeometry width="70" height="30" as="geometry" />
        </mxCell>
        <mxCell id="M6c7fhZQipC6nJDo4fWO-19" value="fid" style="shape=partialRectangle;connectable=0;fillColor=none;top=0;left=0;bottom=0;right=0;align=left;spacingLeft=6;overflow=hidden;strokeColor=#457B9D;fontColor=#1D3557;fontStyle=1" parent="M6c7fhZQipC6nJDo4fWO-17" vertex="1">
          <mxGeometry x="70" width="180" height="30" as="geometry" />
        </mxCell>
        <mxCell id="M6c7fhZQipC6nJDo4fWO-189" value="List" style="swimlane;fontStyle=0;childLayout=stackLayout;horizontal=1;startSize=26;horizontalStack=0;resizeParent=1;resizeParentMax=0;resizeLast=0;collapsible=1;marginBottom=0;align=center;fontSize=14;strokeColor=#457B9D;fillColor=#A8DADC;" parent="1" vertex="1">
          <mxGeometry x="252" y="425" width="68" height="116" as="geometry" />
        </mxCell>
        <mxCell id="M6c7fhZQipC6nJDo4fWO-190" value="0" style="text;strokeColor=none;fillColor=none;spacingLeft=4;spacingRight=4;overflow=hidden;rotatable=0;points=[[0,0.5],[1,0.5]];portConstraint=eastwest;fontSize=12;align=center;" parent="M6c7fhZQipC6nJDo4fWO-189" vertex="1">
          <mxGeometry y="26" width="68" height="30" as="geometry" />
        </mxCell>
        <mxCell id="M6c7fhZQipC6nJDo4fWO-191" value="1" style="text;strokeColor=none;fillColor=none;spacingLeft=4;spacingRight=4;overflow=hidden;rotatable=0;points=[[0,0.5],[1,0.5]];portConstraint=eastwest;fontSize=12;align=center;" parent="M6c7fhZQipC6nJDo4fWO-189" vertex="1">
          <mxGeometry y="56" width="68" height="30" as="geometry" />
        </mxCell>
        <mxCell id="M6c7fhZQipC6nJDo4fWO-192" value="2" style="text;strokeColor=none;fillColor=none;spacingLeft=4;spacingRight=4;overflow=hidden;rotatable=0;points=[[0,0.5],[1,0.5]];portConstraint=eastwest;fontSize=12;align=center;" parent="M6c7fhZQipC6nJDo4fWO-189" vertex="1">
          <mxGeometry y="86" width="68" height="30" as="geometry" />
        </mxCell>
        <mxCell id="M6c7fhZQipC6nJDo4fWO-193" style="edgeStyle=orthogonalEdgeStyle;orthogonalLoop=1;jettySize=auto;html=1;strokeColor=#457B9D;fillColor=#A8DADC;fontColor=#1D3557;" parent="1" source="M6c7fhZQipC6nJDo4fWO-190" target="M6c7fhZQipC6nJDo4fWO-7" edge="1">
          <mxGeometry relative="1" as="geometry">
            <mxPoint x="430" y="435" as="targetPoint" />
            <Array as="points">
              <mxPoint x="370" y="466" />
              <mxPoint x="370" y="435" />
            </Array>
          </mxGeometry>
        </mxCell>
        <mxCell id="M6c7fhZQipC6nJDo4fWO-194" style="edgeStyle=orthogonalEdgeStyle;orthogonalLoop=1;jettySize=auto;html=1;strokeColor=#457B9D;fillColor=#A8DADC;fontColor=#1D3557;entryX=0;entryY=0;entryDx=0;entryDy=0;" parent="1" source="M6c7fhZQipC6nJDo4fWO-24" target="M6c7fhZQipC6nJDo4fWO-189" edge="1">
          <mxGeometry relative="1" as="geometry">
            <mxPoint x="242" y="415" as="targetPoint" />
          </mxGeometry>
        </mxCell>
        <mxCell id="M6c7fhZQipC6nJDo4fWO-195" style="edgeStyle=orthogonalEdgeStyle;orthogonalLoop=1;jettySize=auto;html=1;entryX=0;entryY=0;entryDx=0;entryDy=0;strokeColor=#457B9D;fillColor=#A8DADC;fontColor=#1D3557;exitX=1;exitY=0.5;exitDx=0;exitDy=0;" parent="1" source="M6c7fhZQipC6nJDo4fWO-30" target="M6c7fhZQipC6nJDo4fWO-7" edge="1">
          <mxGeometry relative="1" as="geometry">
            <Array as="points">
              <mxPoint x="210" y="565" />
              <mxPoint x="410" y="565" />
              <mxPoint x="410" y="405" />
              <mxPoint x="430" y="405" />
              <mxPoint x="430" y="425" />
            </Array>
          </mxGeometry>
        </mxCell>
        <mxCell id="M6c7fhZQipC6nJDo4fWO-196" value="" style="group;fontColor=#1D3557;" parent="1" vertex="1" connectable="0">
          <mxGeometry x="640" y="320" width="250" height="535" as="geometry" />
        </mxCell>
        <mxCell id="M6c7fhZQipC6nJDo4fWO-197" value="Cell" style="shape=table;startSize=30;container=1;collapsible=1;childLayout=tableLayout;fixedRows=1;rowLines=0;fontStyle=1;align=center;resizeLast=1;fillColor=#A8DADC;strokeColor=#457B9D;fontColor=#1D3557;" parent="M6c7fhZQipC6nJDo4fWO-196" vertex="1" collapsed="1">
          <mxGeometry x="-180" y="305" width="50" height="30" as="geometry">
            <mxRectangle x="-180" y="305" width="250" height="190" as="alternateBounds" />
          </mxGeometry>
        </mxCell>
        <mxCell id="M6c7fhZQipC6nJDo4fWO-198" value="" style="shape=partialRectangle;collapsible=0;dropTarget=0;pointerEvents=0;fillColor=none;top=0;left=0;bottom=1;right=0;points=[[0,0.5],[1,0.5]];portConstraint=eastwest;strokeColor=#457B9D;fontColor=#1D3557;" parent="M6c7fhZQipC6nJDo4fWO-197" vertex="1">
          <mxGeometry y="30" width="250" height="30" as="geometry" />
        </mxCell>
        <mxCell id="M6c7fhZQipC6nJDo4fWO-199" value="type" style="shape=partialRectangle;connectable=0;fillColor=none;top=0;left=0;bottom=0;right=0;fontStyle=1;overflow=hidden;strokeColor=#457B9D;fontColor=#1D3557;" parent="M6c7fhZQipC6nJDo4fWO-198" vertex="1">
          <mxGeometry width="70" height="30" as="geometry" />
        </mxCell>
        <mxCell id="M6c7fhZQipC6nJDo4fWO-200" value="name" style="shape=partialRectangle;connectable=0;fillColor=none;top=0;left=0;bottom=0;right=0;align=left;spacingLeft=6;fontStyle=1;overflow=hidden;strokeColor=#457B9D;fontColor=#1D3557;" parent="M6c7fhZQipC6nJDo4fWO-198" vertex="1">
          <mxGeometry x="70" width="180" height="30" as="geometry" />
        </mxCell>
        <mxCell id="M6c7fhZQipC6nJDo4fWO-201" value="" style="shape=partialRectangle;collapsible=0;dropTarget=0;pointerEvents=0;fillColor=none;top=0;left=0;bottom=0;right=0;points=[[0,0.5],[1,0.5]];portConstraint=eastwest;strokeColor=#457B9D;fontColor=#1D3557;" parent="M6c7fhZQipC6nJDo4fWO-197" vertex="1">
          <mxGeometry y="60" width="250" height="30" as="geometry" />
        </mxCell>
        <mxCell id="M6c7fhZQipC6nJDo4fWO-202" value="df" style="shape=partialRectangle;connectable=0;fillColor=none;top=0;left=0;bottom=0;right=0;editable=1;overflow=hidden;strokeColor=#457B9D;fontColor=#1D3557;" parent="M6c7fhZQipC6nJDo4fWO-201" vertex="1">
          <mxGeometry width="70" height="30" as="geometry" />
        </mxCell>
        <mxCell id="M6c7fhZQipC6nJDo4fWO-203" value="raw, summary, steps" style="shape=partialRectangle;connectable=0;fillColor=none;top=0;left=0;bottom=0;right=0;align=left;spacingLeft=6;overflow=hidden;strokeColor=#457B9D;fontColor=#1D3557;" parent="M6c7fhZQipC6nJDo4fWO-201" vertex="1">
          <mxGeometry x="70" width="180" height="30" as="geometry" />
        </mxCell>
        <mxCell id="M6c7fhZQipC6nJDo4fWO-204" value="" style="shape=partialRectangle;collapsible=0;dropTarget=0;pointerEvents=0;fillColor=none;top=0;left=0;bottom=0;right=0;points=[[0,0.5],[1,0.5]];portConstraint=eastwest;strokeColor=#457B9D;fontColor=#1D3557;" parent="M6c7fhZQipC6nJDo4fWO-197" vertex="1">
          <mxGeometry y="90" width="250" height="30" as="geometry" />
        </mxCell>
        <mxCell id="M6c7fhZQipC6nJDo4fWO-205" value="dict" style="shape=partialRectangle;connectable=0;fillColor=none;top=0;left=0;bottom=0;right=0;editable=1;overflow=hidden;strokeColor=#457B9D;fontColor=#1D3557;" parent="M6c7fhZQipC6nJDo4fWO-204" vertex="1">
          <mxGeometry width="70" height="30" as="geometry" />
        </mxCell>
        <mxCell id="M6c7fhZQipC6nJDo4fWO-206" value="raw_limits, raw_steps" style="shape=partialRectangle;connectable=0;fillColor=none;top=0;left=0;bottom=0;right=0;align=left;spacingLeft=6;overflow=hidden;strokeColor=#457B9D;fontColor=#1D3557;" parent="M6c7fhZQipC6nJDo4fWO-204" vertex="1">
          <mxGeometry x="70" width="180" height="30" as="geometry" />
        </mxCell>
        <mxCell id="M6c7fhZQipC6nJDo4fWO-207" value="" style="shape=partialRectangle;collapsible=0;dropTarget=0;pointerEvents=0;fillColor=none;top=0;left=0;bottom=0;right=0;points=[[0,0.5],[1,0.5]];portConstraint=eastwest;strokeColor=#457B9D;fontColor=#1D3557;" parent="M6c7fhZQipC6nJDo4fWO-197" vertex="1">
          <mxGeometry y="120" width="250" height="30" as="geometry" />
        </mxCell>
        <mxCell id="M6c7fhZQipC6nJDo4fWO-208" value="obj" style="shape=partialRectangle;connectable=0;fillColor=none;top=0;left=0;bottom=0;right=0;editable=1;overflow=hidden;strokeColor=#457B9D;fontColor=#1D3557;" parent="M6c7fhZQipC6nJDo4fWO-207" vertex="1">
          <mxGeometry width="70" height="30" as="geometry" />
        </mxCell>
        <mxCell id="M6c7fhZQipC6nJDo4fWO-209" value="fid" style="shape=partialRectangle;connectable=0;fillColor=none;top=0;left=0;bottom=0;right=0;align=left;spacingLeft=6;overflow=hidden;strokeColor=#457B9D;fontColor=#1D3557;" parent="M6c7fhZQipC6nJDo4fWO-207" vertex="1">
          <mxGeometry x="70" width="180" height="30" as="geometry" />
        </mxCell>
        <mxCell id="M6c7fhZQipC6nJDo4fWO-211" value="" style="group;fontColor=#1D3557;" parent="M6c7fhZQipC6nJDo4fWO-196" vertex="1" connectable="0">
          <mxGeometry y="40" width="250" height="495" as="geometry" />
        </mxCell>
        <mxCell id="M6c7fhZQipC6nJDo4fWO-212" value="Cell" style="shape=table;startSize=30;container=1;collapsible=1;childLayout=tableLayout;fixedRows=1;rowLines=0;fontStyle=1;align=center;resizeLast=1;fillColor=#A8DADC;strokeColor=#457B9D;fontColor=#1D3557;" parent="M6c7fhZQipC6nJDo4fWO-211" vertex="1" collapsed="1">
          <mxGeometry x="-180" y="305" width="50" height="30" as="geometry">
            <mxRectangle x="-180" y="305" width="250" height="190" as="alternateBounds" />
          </mxGeometry>
        </mxCell>
        <mxCell id="M6c7fhZQipC6nJDo4fWO-213" value="" style="shape=partialRectangle;collapsible=0;dropTarget=0;pointerEvents=0;fillColor=none;top=0;left=0;bottom=1;right=0;points=[[0,0.5],[1,0.5]];portConstraint=eastwest;strokeColor=#457B9D;fontColor=#1D3557;" parent="M6c7fhZQipC6nJDo4fWO-212" vertex="1">
          <mxGeometry y="30" width="250" height="30" as="geometry" />
        </mxCell>
        <mxCell id="M6c7fhZQipC6nJDo4fWO-214" value="type" style="shape=partialRectangle;connectable=0;fillColor=none;top=0;left=0;bottom=0;right=0;fontStyle=1;overflow=hidden;strokeColor=#457B9D;fontColor=#1D3557;" parent="M6c7fhZQipC6nJDo4fWO-213" vertex="1">
          <mxGeometry width="70" height="30" as="geometry" />
        </mxCell>
        <mxCell id="M6c7fhZQipC6nJDo4fWO-215" value="name" style="shape=partialRectangle;connectable=0;fillColor=none;top=0;left=0;bottom=0;right=0;align=left;spacingLeft=6;fontStyle=1;overflow=hidden;strokeColor=#457B9D;fontColor=#1D3557;" parent="M6c7fhZQipC6nJDo4fWO-213" vertex="1">
          <mxGeometry x="70" width="180" height="30" as="geometry" />
        </mxCell>
        <mxCell id="M6c7fhZQipC6nJDo4fWO-216" value="" style="shape=partialRectangle;collapsible=0;dropTarget=0;pointerEvents=0;fillColor=none;top=0;left=0;bottom=0;right=0;points=[[0,0.5],[1,0.5]];portConstraint=eastwest;strokeColor=#457B9D;fontColor=#1D3557;" parent="M6c7fhZQipC6nJDo4fWO-212" vertex="1">
          <mxGeometry y="60" width="250" height="30" as="geometry" />
        </mxCell>
        <mxCell id="M6c7fhZQipC6nJDo4fWO-217" value="df" style="shape=partialRectangle;connectable=0;fillColor=none;top=0;left=0;bottom=0;right=0;editable=1;overflow=hidden;strokeColor=#457B9D;fontColor=#1D3557;" parent="M6c7fhZQipC6nJDo4fWO-216" vertex="1">
          <mxGeometry width="70" height="30" as="geometry" />
        </mxCell>
        <mxCell id="M6c7fhZQipC6nJDo4fWO-218" value="raw, summary, steps" style="shape=partialRectangle;connectable=0;fillColor=none;top=0;left=0;bottom=0;right=0;align=left;spacingLeft=6;overflow=hidden;strokeColor=#457B9D;fontColor=#1D3557;" parent="M6c7fhZQipC6nJDo4fWO-216" vertex="1">
          <mxGeometry x="70" width="180" height="30" as="geometry" />
        </mxCell>
        <mxCell id="M6c7fhZQipC6nJDo4fWO-219" value="" style="shape=partialRectangle;collapsible=0;dropTarget=0;pointerEvents=0;fillColor=none;top=0;left=0;bottom=0;right=0;points=[[0,0.5],[1,0.5]];portConstraint=eastwest;strokeColor=#457B9D;fontColor=#1D3557;" parent="M6c7fhZQipC6nJDo4fWO-212" vertex="1">
          <mxGeometry y="90" width="250" height="30" as="geometry" />
        </mxCell>
        <mxCell id="M6c7fhZQipC6nJDo4fWO-220" value="dict" style="shape=partialRectangle;connectable=0;fillColor=none;top=0;left=0;bottom=0;right=0;editable=1;overflow=hidden;strokeColor=#457B9D;fontColor=#1D3557;" parent="M6c7fhZQipC6nJDo4fWO-219" vertex="1">
          <mxGeometry width="70" height="30" as="geometry" />
        </mxCell>
        <mxCell id="M6c7fhZQipC6nJDo4fWO-221" value="raw_limits, raw_steps" style="shape=partialRectangle;connectable=0;fillColor=none;top=0;left=0;bottom=0;right=0;align=left;spacingLeft=6;overflow=hidden;strokeColor=#457B9D;fontColor=#1D3557;" parent="M6c7fhZQipC6nJDo4fWO-219" vertex="1">
          <mxGeometry x="70" width="180" height="30" as="geometry" />
        </mxCell>
        <mxCell id="M6c7fhZQipC6nJDo4fWO-222" value="" style="shape=partialRectangle;collapsible=0;dropTarget=0;pointerEvents=0;fillColor=none;top=0;left=0;bottom=0;right=0;points=[[0,0.5],[1,0.5]];portConstraint=eastwest;strokeColor=#457B9D;fontColor=#1D3557;" parent="M6c7fhZQipC6nJDo4fWO-212" vertex="1">
          <mxGeometry y="120" width="250" height="30" as="geometry" />
        </mxCell>
        <mxCell id="M6c7fhZQipC6nJDo4fWO-223" value="obj" style="shape=partialRectangle;connectable=0;fillColor=none;top=0;left=0;bottom=0;right=0;editable=1;overflow=hidden;strokeColor=#457B9D;fontColor=#1D3557;" parent="M6c7fhZQipC6nJDo4fWO-222" vertex="1">
          <mxGeometry width="70" height="30" as="geometry" />
        </mxCell>
        <mxCell id="M6c7fhZQipC6nJDo4fWO-224" value="fid" style="shape=partialRectangle;connectable=0;fillColor=none;top=0;left=0;bottom=0;right=0;align=left;spacingLeft=6;overflow=hidden;strokeColor=#457B9D;fontColor=#1D3557;" parent="M6c7fhZQipC6nJDo4fWO-222" vertex="1">
          <mxGeometry x="70" width="180" height="30" as="geometry" />
        </mxCell>
        <mxCell id="M6c7fhZQipC6nJDo4fWO-210" style="edgeStyle=orthogonalEdgeStyle;orthogonalLoop=1;jettySize=auto;html=1;strokeColor=#457B9D;fillColor=#A8DADC;fontColor=#1D3557;exitX=1;exitY=0.5;exitDx=0;exitDy=0;" parent="1" source="M6c7fhZQipC6nJDo4fWO-191" edge="1">
          <mxGeometry relative="1" as="geometry">
            <mxPoint x="457" y="635" as="targetPoint" />
            <mxPoint x="359" y="496" as="sourcePoint" />
            <Array as="points">
              <mxPoint x="397" y="496" />
              <mxPoint x="397" y="635" />
            </Array>
          </mxGeometry>
        </mxCell>
        <mxCell id="M6c7fhZQipC6nJDo4fWO-225" style="edgeStyle=orthogonalEdgeStyle;orthogonalLoop=1;jettySize=auto;html=1;strokeColor=#457B9D;fillColor=#A8DADC;fontColor=#1D3557;exitX=1;exitY=0.5;exitDx=0;exitDy=0;" parent="1" source="M6c7fhZQipC6nJDo4fWO-192" edge="1">
          <mxGeometry relative="1" as="geometry">
            <mxPoint x="457" y="675" as="targetPoint" />
            <mxPoint x="359" y="526" as="sourcePoint" />
            <Array as="points">
              <mxPoint x="387" y="526" />
              <mxPoint x="387" y="675" />
            </Array>
          </mxGeometry>
        </mxCell>
        <mxCell id="M6c7fhZQipC6nJDo4fWO-226" value="Raw" style="swimlane;html=1;childLayout=stackLayout;resizeParent=1;resizeParentMax=0;startSize=20;strokeColor=#457B9D;fillColor=#A8DADC;fontColor=#1D3557;" parent="1" vertex="1">
          <mxGeometry x="730" y="425" width="360" height="120" as="geometry" />
        </mxCell>
        <mxCell id="M6c7fhZQipC6nJDo4fWO-227" value="Cycle" style="swimlane;html=1;startSize=20;" parent="M6c7fhZQipC6nJDo4fWO-226" vertex="1">
          <mxGeometry y="20" width="120" height="100" as="geometry" />
        </mxCell>
        <mxCell id="M6c7fhZQipC6nJDo4fWO-228" value="Step" style="swimlane;html=1;startSize=20;" parent="M6c7fhZQipC6nJDo4fWO-226" vertex="1">
          <mxGeometry x="120" y="20" width="120" height="100" as="geometry" />
        </mxCell>
        <mxCell id="M6c7fhZQipC6nJDo4fWO-229" value="Vars" style="swimlane;html=1;startSize=20;" parent="M6c7fhZQipC6nJDo4fWO-226" vertex="1">
          <mxGeometry x="240" y="20" width="120" height="100" as="geometry" />
        </mxCell>
        <mxCell id="M6c7fhZQipC6nJDo4fWO-230" value="Steps" style="swimlane;html=1;childLayout=stackLayout;resizeParent=1;resizeParentMax=0;startSize=20;strokeColor=#457B9D;fillColor=#A8DADC;fontColor=#1D3557;" parent="1" vertex="1">
          <mxGeometry x="730" y="550" width="360" height="120" as="geometry" />
        </mxCell>
        <mxCell id="M6c7fhZQipC6nJDo4fWO-231" value="Cycle" style="swimlane;html=1;startSize=20;" parent="M6c7fhZQipC6nJDo4fWO-230" vertex="1">
          <mxGeometry y="20" width="120" height="100" as="geometry" />
        </mxCell>
        <mxCell id="M6c7fhZQipC6nJDo4fWO-232" value="Step" style="swimlane;html=1;startSize=20;" parent="M6c7fhZQipC6nJDo4fWO-230" vertex="1">
          <mxGeometry x="120" y="20" width="120" height="100" as="geometry" />
        </mxCell>
        <mxCell id="M6c7fhZQipC6nJDo4fWO-233" value="Vars_stat" style="swimlane;html=1;startSize=20;" parent="M6c7fhZQipC6nJDo4fWO-230" vertex="1">
          <mxGeometry x="240" y="20" width="120" height="100" as="geometry" />
        </mxCell>
        <mxCell id="M6c7fhZQipC6nJDo4fWO-234" value="Summary" style="swimlane;html=1;childLayout=stackLayout;resizeParent=1;resizeParentMax=0;startSize=20;strokeColor=#457B9D;fillColor=#A8DADC;fontColor=#1D3557;" parent="1" vertex="1">
          <mxGeometry x="730" y="677" width="240" height="120" as="geometry" />
        </mxCell>
        <mxCell id="M6c7fhZQipC6nJDo4fWO-235" value="Cycle" style="swimlane;html=1;startSize=20;" parent="M6c7fhZQipC6nJDo4fWO-234" vertex="1">
          <mxGeometry y="20" width="120" height="100" as="geometry" />
        </mxCell>
        <mxCell id="M6c7fhZQipC6nJDo4fWO-236" value="Vars_tot" style="swimlane;html=1;startSize=20;" parent="M6c7fhZQipC6nJDo4fWO-234" vertex="1">
          <mxGeometry x="120" y="20" width="120" height="100" as="geometry" />
        </mxCell>
        <mxCell id="M6c7fhZQipC6nJDo4fWO-238" style="edgeStyle=orthogonalEdgeStyle;rounded=1;orthogonalLoop=1;jettySize=auto;html=1;entryX=0.422;entryY=-0.008;entryDx=0;entryDy=0;entryPerimeter=0;strokeColor=#457B9D;fillColor=#A8DADC;fontColor=#1D3557;" parent="1" source="M6c7fhZQipC6nJDo4fWO-8" target="M6c7fhZQipC6nJDo4fWO-226" edge="1">
          <mxGeometry relative="1" as="geometry">
            <Array as="points">
              <mxPoint x="720" y="470" />
              <mxPoint x="720" y="405" />
              <mxPoint x="882" y="405" />
            </Array>
          </mxGeometry>
        </mxCell>
      </root>
    </mxGraphModel>
  </diagram>
</mxfile>
